2D_gait_states
version=1
nRows=12
nColumns=39
inDegrees=yes

# SIMM Motion File Header:
name 2D_gait_states
datacolumns 39
datarows 12
otherdata 1
range 0.00000000 0.02769916
endheader
time	/hamstrings_r/activation	/bifemsh_r/activation	/glut_max_r/activation	/iliopsoas_r/activation	/rect_fem_r/activation	/vasti_r/activation	/gastroc_r/activation	/soleus_r/activation	/tib_ant_r/activation	/hamstrings_l/activation	/bifemsh_l/activation	/glut_max_l/activation	/iliopsoas_l/activation	/rect_fem_l/activation	/vasti_l/activation	/gastroc_l/activation	/soleus_l/activation	/tib_ant_l/activation	/jointset/groundPelvis/pelvis_tilt/value	/jointset/groundPelvis/pelvis_tilt/speed	/jointset/groundPelvis/pelvis_tx/value	/jointset/groundPelvis/pelvis_tx/speed	/jointset/groundPelvis/pelvis_ty/value	/jointset/groundPelvis/pelvis_ty/speed	/jointset/hip_l/hip_flexion_l/value	/jointset/hip_l/hip_flexion_l/speed	/jointset/hip_r/hip_flexion_r/value	/jointset/hip_r/hip_flexion_r/speed	/jointset/knee_l/knee_angle_l/value	/jointset/knee_l/knee_angle_l/speed	/jointset/knee_r/knee_angle_r/value	/jointset/knee_r/knee_angle_r/speed	/jointset/ankle_l/ankle_angle_l/value	/jointset/ankle_l/ankle_angle_l/speed	/jointset/ankle_r/ankle_angle_r/value	/jointset/ankle_r/ankle_angle_r/speed	/jointset/lumbar/lumbar/value	/jointset/lumbar/lumbar/speed
      0.00000000	      0.01000000	      0.01000000	      0.01000000	      0.01000000	      0.01000000	      0.01000000	      0.01000000	      0.01000000	      0.01000000	      0.01000000	      0.01000000	      0.01000000	      0.01000000	      0.01000000	      0.01000000	      0.01000000	      0.01000000	      0.01000000	    -15.12042336	      0.00000000	      0.00000000	      0.00000000	      0.93500000	      0.00000000	      0.94361720	      0.00000000	     38.05739411	      0.00000000	    -16.23119178	      0.00000000	    -10.56684799	      0.00000000	      5.78097845	      0.00000000	     13.83724009	      0.00000000	      9.61940189	      0.00000000
      0.00096682	      0.00935452	      0.00935452	      0.00935452	      0.00935452	      0.00935452	      0.00935452	      0.00935452	      0.00935452	      0.00935452	      0.00935452	      0.00935452	      0.00935452	      0.00935452	      0.00935452	      0.00935452	      0.00935452	      0.00935452	      0.00935452	    -15.11808271	      4.83428176	      0.00000107	      0.00220842	      0.93499972	     -0.00063272	      0.94064124	     -6.14232920	     38.05429605	     -6.38780212	    -16.22946865	      3.52548928	    -10.56547360	      2.79825510	      5.76117217	    -40.27910734	     13.80636784	    -62.99195671	      9.61666128	     -5.66015514
      0.00193364	      0.00874973	      0.00874973	      0.00874973	      0.00874973	      0.00874973	      0.00874973	      0.00874973	      0.00874973	      0.00874973	      0.00874973	      0.00874973	      0.00874973	      0.00874973	      0.00874973	      0.00874973	      0.00874973	      0.00874973	      0.00874973	    -15.11109053	      9.62197650	      0.00000427	      0.00440094	      0.93499869	     -0.00152178	      0.93176633	    -12.20305754	     38.04508076	    -12.65631918	    -16.22444388	      6.83641020	    -10.56151365	      5.35935521	      5.70433446	    -76.70998326	     13.71699718	   -121.15076356	      9.60847498	    -11.26481607
      0.00325630	      0.00798386	      0.00798386	      0.00798386	      0.00798386	      0.00798386	      0.00798386	      0.00798386	      0.00798386	      0.00798386	      0.00798386	      0.00798386	      0.00798386	      0.00798386	      0.00798386	      0.00798386	      0.00798386	      0.00798386	      0.00798386	    -15.09407507	     16.09177214	      0.00001205	      0.00736631	      0.93499568	     -0.00309911	      0.91021269	    -20.36379477	     38.02276359	    -21.05800992	    -16.21255937	     11.08636998	    -10.55226043	      8.58807507	      5.57269248	   -121.47024819	     13.50759636	   -194.38375434	      9.58855533	    -18.83755705
      0.00457895	      0.00728372	      0.00728372	      0.00728372	      0.00728372	      0.00728372	      0.00728372	      0.00728372	      0.00728372	      0.00728372	      0.00728372	      0.00728372	      0.00728372	      0.00728372	      0.00728372	      0.00728372	      0.00728372	      0.00728372	      0.00728372	    -15.06856341	     22.46997118	      0.00002373	      0.01028995	      0.93499034	     -0.00503647	      0.87796059	    -28.38260543	     37.98945446	    -29.28149783	    -16.19522784	     15.08399470	    -10.53889240	     11.59537509	      5.38506176	   -161.55322186	     13.20544666	   -261.56682422	      9.55869188	    -26.30180640
      0.00621016	      0.00650276	      0.00650276	      0.00650276	      0.00650276	      0.00650276	      0.00650276	      0.00650276	      0.00650276	      0.00650276	      0.00650276	      0.00650276	      0.00650276	      0.00650276	      0.00650276	      0.00650276	      0.00650276	      0.00650276	      0.00650276	    -15.02557216	     30.22085616	      0.00004342	      0.01384558	      0.93497988	     -0.00785364	      0.82371285	    -38.10026555	     37.93356087	    -39.21280866	    -16.16678393	     19.74694235	    -10.51709747	     15.09454453	      5.08472510	   -205.81519655	     12.71610073	   -337.12217076	      9.50837263	    -35.36973816
      0.00825177	      0.00564046	      0.00564046	      0.00564046	      0.00564046	      0.00564046	      0.00564046	      0.00564046	      0.00564046	      0.00564046	      0.00564046	      0.00564046	      0.00564046	      0.00564046	      0.00564046	      0.00564046	      0.00564046	      0.00564046	      0.00564046	    -14.95410100	     39.76773210	      0.00007618	      0.01823745	      0.93495976	     -0.01195902	      0.73370079	    -50.04040128	     37.84104717	    -51.36971689	    -16.12078566	     25.26120111	    -10.48200481	     19.24763095	      4.61363907	   -254.52538967	     11.94011525	   -421.14145755	      9.42473417	    -46.53235527
      0.01082092	      0.00471388	      0.00471388	      0.00471388	      0.00471388	      0.00471388	      0.00471388	      0.00471388	      0.00471388	      0.00471388	      0.00471388	      0.00471388	      0.00471388	      0.00471388	      0.00471388	      0.00471388	      0.00471388	      0.00471388	      0.00471388	    -14.83671094	     51.58312181	      0.00013007	      0.02370508	      0.93492155	     -0.01792396	      0.58613441	    -64.78952820	     37.68979040	    -66.32023439	    -16.04739377	     31.80656527	    -10.42611726	     24.21597565	      3.89055674	   -306.79807296	     10.73906540	   -510.91646596	      9.28740318	    -60.33325148
      0.01403651	      0.00376345	      0.00376345	      0.00376345	      0.00376345	      0.00376345	      0.00376345	      0.00376345	      0.00376345	      0.00376345	      0.00376345	      0.00376345	      0.00376345	      0.00376345	      0.00376345	      0.00376345	      0.00376345	      0.00376345	      0.00376345	    -14.64740148	     66.11846916	      0.00021722	      0.03048823	      0.93485045	     -0.02649630	      0.34856929	    -82.91244208	     37.44703699	    -84.58941723	    -15.93260636	     39.50312565	    -10.33871192	     30.07965412	      2.81532031	   -359.78763416	      8.94730989	   -599.12619283	      9.06605359	    -77.28369745
      0.01799384	      0.00285057	      0.00285057	      0.00285057	      0.00285057	      0.00285057	      0.00285057	      0.00285057	      0.00285057	      0.00285057	      0.00285057	      0.00285057	      0.00285057	      0.00285057	      0.00285057	      0.00285057	      0.00285057	      0.00285057	      0.00285057	    -14.35091832	     83.65480607	      0.00035422	      0.03872335	      0.93472223	     -0.03857645	     -0.02294772	   -104.76404621	     37.06878028	   -106.46528756	    -15.75861981	     48.30683873	    -10.20640448	     36.65014770	      1.29009818	   -408.10540058	      6.41803786	   -673.06005694	      8.71967265	    -97.68808726
      0.02284650	      0.00202597	      0.00202597	      0.00202597	      0.00202597	      0.00202597	      0.00202597	      0.00202597	      0.00202597	      0.00202597	      0.00202597	      0.00202597	      0.00202597	      0.00202597	      0.00202597	      0.00202597	      0.00202597	      0.00202597	      0.00202597	    -13.89397578	    104.54227271	      0.00056598	      0.04845929	      0.93449475	     -0.05557430	     -0.59483688	   -130.76973456	     36.48899799	   -132.28500902	    -15.50002599	     58.07227153	    -10.01159436	     43.35199478	     -0.78897589	   -444.94021690	      3.02475597	   -717.73729463	      8.18642209	   -121.92699102
      0.02769916	      0.00143897	      0.00143897	      0.00143897	      0.00143897	      0.00143897	      0.00143897	      0.00143897	      0.00143897	      0.00143897	      0.00143897	      0.00143897	      0.00143897	      0.00143897	      0.00143897	      0.00143897	      0.00143897	      0.00143897	      0.00143897	    -13.33779819	    124.50181085	      0.00082330	      0.05742897	      0.93417898	     -0.07497523	     -1.29014979	   -155.55927433	     35.78718032	   -156.69919332	    -15.19709232	     66.54930437	     -9.78882565	     48.10701820	     -2.99407386	   -460.68557373	     -0.48141007	   -721.36951813	      7.53816217	   -145.03119879
